<svg xmlns="http://www.w3.org/2000/svg" aria-hidden="true" style="position:absolute;width:0;height:0;overflow:hidden">
  <defs>
    <symbol id="icon-arrow-left" viewBox="0 0 32 32">
      <path fill="#fe7e17" d="M26.88 16c0 6.016-4.864 10.88-10.88 10.88S5.12 22.016 5.12 16C5.12 9.984 9.984 5.12 16 5.12S26.88 9.984 26.88 16zM6.4 16c0 5.312 4.288 9.6 9.6 9.6s9.6-4.288 9.6-9.6c0-5.312-4.288-9.6-9.6-9.6S6.4 10.688 6.4 16z" style="fill:var(--color1, #fe7e17)"/>
      <path fill="#fe7e17" d="M17.088 10.688 11.776 16l5.312 5.312-.896.896L9.984 16l6.208-6.208.896.896z" style="fill:var(--color1, #fe7e17)"/>
      <path fill="#fe7e17" d="M10.88 16.64v-1.28h10.88v1.28H10.88z" style="fill:var(--color1, #fe7e17)"/>
    </symbol>
    <symbol id="icon-arrow-right" viewBox="0 0 32 32">
      <path fill="#fe7e17" d="M5.12 16C5.12 9.984 9.984 5.12 16 5.12S26.88 9.984 26.88 16c0 6.016-4.864 10.88-10.88 10.88S5.12 22.016 5.12 16zm20.48 0c0-5.312-4.288-9.6-9.6-9.6S6.4 10.688 6.4 16c0 5.312 4.288 9.6 9.6 9.6s9.6-4.288 9.6-9.6z" style="fill:var(--color1, #fe7e17)"/>
      <path fill="#fe7e17" d="M14.912 21.312 20.224 16l-5.312-5.312.896-.896L22.016 16l-6.208 6.208-.896-.896z" style="fill:var(--color1, #fe7e17)"/>
      <path fill="#fe7e17" d="M21.12 15.36v1.28H10.24v-1.28h10.88z" style="fill:var(--color1, #fe7e17)"/>
    </symbol>
    <symbol id="icon-check" viewBox="0 0 32 32">
      <path fill="#64a127" d="M8 24h16c.733 0 1.333.6 1.333 1.333s-.6 1.333-1.333 1.333H8c-.733 0-1.333-.6-1.333-1.333S7.267 24 8 24zm6.68-5.467a2.668 2.668 0 0 1-3.76-.013L8 15.6a1.82 1.82 0 0 1 .04-2.627A1.835 1.835 0 0 1 10.6 13l2.2 2.2 8.573-8.573c.72-.72 1.88-.72 2.6 0l.053.053c.72.72.72 1.893-.013 2.613l-9.333 9.24z" style="fill:var(--color2, #64a127)"/>
    </symbol>
    <symbol id="icon-close" viewBox="0 0 32 32">
      <path fill="#fe7e17" d="m8.533 25.333-1.867-1.867 7.467-7.467-7.467-7.467 1.867-1.867L16 14.132l7.467-7.467 1.867 1.867-7.467 7.467 7.467 7.467-1.867 1.867L16 17.866l-7.467 7.467z" style="fill:var(--color1, #fe7e17)"/>
    </symbol>
    <symbol id="icon-menu" viewBox="0 0 32 32">
      <path d="M4 24v-2h24v2H4zm0-7v-2h24v2H4zm0-7V8h24v2H4z"/>
    </symbol>
  </defs>
</svg>
